/* XPM */
static char *result[] = {
/* columns rows colors chars-per-pixel */
"60 60 167 2 ",
"   c #000000",
".  c #0A0701",
"X  c #0C0802",
"o  c #0C0B0A",
"O  c #130C01",
"+  c #110F0D",
"@  c #1B1100",
"#  c #17130B",
"$  c #141311",
"%  c #1B1915",
"&  c #1B1918",
"*  c #231600",
"=  c #281900",
"-  c #321F00",
";  c #392400",
":  c #24211E",
">  c #292724",
",  c #3A3121",
"<  c #35322E",
"1  c #432A01",
"2  c #4B2F00",
"3  c #533400",
"4  c #5E3B00",
"5  c #513B16",
"6  c #643E00",
"7  c #423E38",
"8  c #6D4501",
"9  c #764A00",
"0  c #7B5007",
"q  c #5F4925",
"w  c #46423A",
"e  c #574D3B",
"r  c #6D5120",
"t  c #635335",
"y  c #484540",
"u  c #55514A",
"i  c #59544D",
"p  c #655A46",
"a  c #625C54",
"s  c #6B6459",
"d  c #776D5B",
"f  c #746D62",
"g  c #7F786E",
"h  c #BE0D02",
"j  c #BE1D01",
"k  c #C20E01",
"l  c #C61901",
"z  c #C62700",
"x  c #865604",
"c  c #8A5600",
"v  c #965E00",
"b  c #835B14",
"n  c #9D6300",
"m  c #A46700",
"M  c #B57200",
"N  c #B87300",
"B  c #BF7800",
"V  c #A57D38",
"C  c #DC5500",
"Z  c #DE5900",
"A  c #E84800",
"S  c #E25300",
"D  c #FA5300",
"F  c #FC5C00",
"G  c #DD6200",
"H  c #C17A00",
"J  c #FD6300",
"K  c #FD6B00",
"L  c #E97300",
"P  c #F37100",
"I  c #FD7300",
"U  c #FE7B00",
"Y  c #907E5F",
"T  c #817A6F",
"R  c #B48129",
"E  c #CE8200",
"W  c #D48500",
"Q  c #DF8C00",
"!  c #E18E00",
"~  c #EF8C00",
"^  c #F38700",
"/  c #FE8400",
"(  c #FE8B00",
")  c #E59202",
"_  c #EB9500",
"`  c #E3940E",
"'  c #F19600",
"]  c #FE9300",
"[  c #F69B01",
"{  c #FD9C00",
"}  c #FD9B0B",
"|  c #E49915",
" . c #FEA300",
".. c #FFAC00",
"X. c #FEA20C",
"o. c #FDAD08",
"O. c #FFB300",
"+. c #FFBB04",
"@. c #FBA313",
"#. c #FEAA14",
"$. c #FDA419",
"%. c #FAA81A",
"&. c #FFB616",
"*. c #D19122",
"=. c #FC9E21",
"-. c #E9A82F",
";. c #FAAB25",
":. c #FEB524",
">. c #FEB62A",
",. c #FEAA3A",
"<. c #FDBC36",
"1. c #FDB538",
"2. c #FEC00B",
"3. c #FFC113",
"4. c #FEC31D",
"5. c #FFC523",
"6. c #B79049",
"7. c #968D7D",
"8. c #AF996E",
"9. c #DCA74C",
"0. c #DEB25B",
"q. c #FBBC44",
"w. c #CCA863",
"e. c #E8BB64",
"r. c #FFCC44",
"t. c #FFCE4E",
"y. c #FDC454",
"u. c #FFCF57",
"i. c #FFD05E",
"p. c #EEC369",
"a. c #F7C766",
"s. c #FBCA69",
"d. c #FFD36B",
"f. c #E8C479",
"g. c #F7CB75",
"h. c #FED577",
"j. c #968E80",
"k. c #9E9584",
"l. c #AB9F89",
"z. c #B6A78B",
"x. c #B5A994",
"c. c #CBB181",
"v. c #D1BC93",
"b. c #C8BCA9",
"n. c #DCC288",
"m. c #FAD686",
"M. c #FED98A",
"N. c #E1C99C",
"B. c #FCD89A",
"V. c #FEE09A",
"C. c #CFC3AE",
"Z. c #D8C8A8",
"A. c #D9CCB7",
"S. c #EAD3A3",
"D. c #FDDAA4",
"F. c #FFE0A1",
"G. c #FDE5B5",
"H. c #FDE7BD",
"J. c #FFE9BE",
"K. c #EEE0C8",
"L. c #F9E6C6",
"P. c #FFEDCD",
"I. c #FDEED5",
"U. c #FDEFD8",
"Y. c #FEF1DB",
"T. c #FEF3E2",
"R. c #FFF6EA",
/* pixels */
"                                                                                                                        ",
"                                                                                                                        ",
"                                                                                                                        ",
"                                                                                                                        ",
"                                                                                                                        ",
"                                                                                                                        ",
"                                                                                                                        ",
"                                                                                                                        ",
"                                                                                                                        ",
"                                                                                                                        ",
"                                                                                                                        ",
"                                                      o $ $ $ + o                                                       ",
"                                                % 7 a g j.l.k.7.g a w &                                                 ",
"                                            > f x.Z.S.m.g.s.a.a.g.f.n.z.f > .                                           ",
"                                      . : f b.K.G.y.;.$.} } } } X.$.:.q.p.c.d : .                                       ",
"                                    o w x.K.U.U.H.,.( ( ( / ( / ( ( ] { X.>.p.8.w o                                     ",
"                                  o a C.I.U.U.U.J.,.( ( ( ( ( ( ( ( ( ( { ..o.<.w.i +                                   ",
"                                o s A.U.Y.Y.Y.Y.B.$.] ] ( ( ( ( ( ( {  ..... . .$.9.p o                                 ",
"                              o u A.I.U.Y.T.T.U.h.&.O. .{ ] ( ( ]  .....{ ] ( ( ] $.9.e o                               ",
"                            . < b.I.U.Y.Y.R.R.P.M.r.2.O.....{ {  ... .{ ] ( ( / U } %.*.,                               ",
"                            & j.L.I.Y.Y.R.R.I.J.F.i.3.O.....O.......] ( ( ( ( / U U ( @.V +                             ",
"                            u S.m.P.T.T.Y.I.J.G.V.t.2.O.............{ ( ( ( ( / I K U } | q                             ",
"                          $ l.g.1.D.H.V.M.V.V.V.d.5.+.................{ ( ( ( ( U J J ( X.R %                           ",
"                          w N.1.] =.:.&.4.r.u.r.5.+.O.O.................] ( ( ( U F F I [ ` 5                           ",
"                        o T g.@.( ] :.<.+.+.2.+.+.O.O................... .( ( ( / J F J ( [ x X                         ",
"                        & x.y.] ( } s.y...O.O.O......................... .] / ( / J D F /  .M @                         ",
"                        < v.>.] / } 5.:................... .[ ........ ...{ ( ( / K D F I [ W -                         ",
"                        y n.#.] ( { o.......O.............( S [  .....{  .{ ( ( / J D F K { ) 1 .                       ",
"                        u e.#.( ( ] ......O...........] P A l C L [ ..]  .[ ( ( / J D D J ] _ 3 .                       ",
"                        i e.X.( ( ] ..................' C k h j G  . .]  .] ( ( U F D F K ] _ 3                         ",
"                        u e.X.( ( (  ...................~ z h z ' ..{ (  .] ( / K D D F K ] _ 3 .                       ",
"                        y 0.X./ ( ( ]  .................^ Z L Z ~  .] ( { ( ( / J D D F K ] ) 1                         ",
"                        < w.@./ / ( ( { ................ . ... .[ ] ( ( ] ( / I D D D F I { W ;                         ",
"                        & w.$./ U / ( ( { .................... .[ ( ( ( ( / U J D D D F / { B *                         ",
"                          Y ;.( I U / ( ( {  .........O.O... .] ( ( ( ( / / J D D D D J ( [ v O                         ",
"                          u -.] U K K U ( ( ] ] {  . . .{ ] ( ( ( ( ( / U K F D D D F I { ) 4                           ",
"                          & 6.X./ J J J U / ( ( ( ( ( ( ( ( ( ( ( ( / U J D D D D F J / { H =                           ",
"                            t -.] I J F F K U / ( ( / ( ( ( ( / / U K J D D D D D F I [ _ 9 .                           ",
"                            * 6.X./ K J D D F I I U / / / U U I K F D D D D D D F K (  .N *                             ",
"                              , *.} / J J F F F F F J J J J F D D D D D D D D F J / { Q 3                               ",
"                              o r ` [ / J F F D D D D D D D D D D D D D D F F J / { _ 9 O                               ",
"                                O b ) { / K J F D D D D D D D D D D D F F J K ( { ' c O                                 ",
"                                  # 0 !  .] I J F F F F D D F D D F F F J U ] { _ c @                                   ",
"                                    O 4 E [ { ( U K J J F F F J F J I U ( { [ W 8 O                                     ",
"                                      . ; n Q [ { ] ( / U U U U / ( { { [ ! m ; X                                       ",
"                                          X 2 n W ) [ [ { { { { { [ _ W n 3 O                                           ",
"                                              . - 4 x n M H B M m c 6 ; O                                               ",
"                                                  . X O * * * * O . .                                                   ",
"                                                            .   .                                                       ",
"                                                                                                                        ",
"                                                                                                                        ",
"                                                                                                                        ",
"                                                                                                                        ",
"                                                                                                                        ",
"                                                                                                                        ",
"                                                                                                                        ",
"                                                                                                                        ",
"                                                                                                                        ",
"                                                                                                                        ",
"                                                                                                                        "
};
