/* XPM */
static char *result[] = {
/* columns rows colors chars-per-pixel */
"60 60 28 1 ",
"  c black",
". c #0F0903",
"X c #110B04",
"o c #693E14",
"O c #714517",
"+ c #754819",
"@ c #7C4C1B",
"# c #804F1C",
"$ c #82511D",
"% c #9C6225",
"& c #9F6628",
"* c #A06729",
"= c #A36A2C",
"- c #AB6D2F",
"; c #B4732E",
": c #B8762F",
"> c #BC782F",
", c #A76C30",
"< c #A96E31",
"1 c #AD7131",
"2 c #B47532",
"3 c #B97731",
"4 c #B77833",
"5 c #BB7A32",
"6 c #C27A2F",
"7 c #C47E32",
"8 c #C68134",
"9 c #C88436",
/* pixels */
"           &7988898989788887787897779977799777777X          ",
"           *8999998999978798897897977797777997777.          ",
"           =8887777879979777788877779797777997777X          ",
"           &8883-,=,,,<--<,<<<<==,,,<,,<<<-<57797.          ",
"           =995,1353555>5555355355575575754<<9978.          ",
"           =99519987888878887998677777777777<7998X          ",
"           =99429999998888888998797799997997<7998.          ",
"           &99429979777788998887797979779999<7998.          ",
"           *99529969777789899998977797799989<8987.          ",
"           *89519777787988989968777799999999<8888.          ",
"           *76427777797989888888779779999985,8978X          ",
"           *88217997678888888888978879798988,8588X          ",
"           =882-7777878988888889997889988885=8888X          ",
"           =895-7778888988788688897777888889,8998.          ",
"           *88427899899998887668779797785988<8897.          ",
"           *88418999888888788888777798888894,5887.          ",
"           &88518898799979979977889998886866,7988X          ",
"           &895199999799797979998898898888>8<7788X          ",
"           ,99529999977977977979988988888886<5888.          ",
"           =99529979979977999977988888868886<7888X          ",
"           =982-9997979979997999989986888887=8887.          ",
"           =88229999999977977979999888889897-5887.          ",
"           =88319999799999977799988888686885,7887X          ",
"           &88327999997797977779889988888868<8887X          ",
"           =882-9979997999977777889998889877,7998.          ",
"           *78219997779999977677888899999887,7898.          ",
"           *78319997769799777777888888889987,5517X          ",
"           *88329997797777779979668898888888,7@+5.          ",
"           =666;7797976777777777>88888888985<5$O8X          ",
"           =76;*7779777977797779788888888789<8@+5X          ",
"          .*776;777777797777779988888888889915@O7X          ",
"           -99667767979779777999888889788885,5@O7.          ",
"           =88;17788889887677787978778777776>6#o5X          ",
"           &88:18868789887778878789997798777;6#o5.          ",
"           &884-7767889789889988789997977776&>Oo5.          ",
"           =88417999888867977989789897998766*6#o5X          ",
"           =88517799777787878899889797978777;6*%7.          ",
"           =88519999977887877888877898978888;6778X          ",
"           =88417779997778777899888898777888-7778X          ",
"           *89219777797778778889788898878887-7889X          ",
"           &89417897897879777889999797978875<7987.          ",
"           =884-7677777779997899797979978877,8988.          ",
"           =88:-7777778778987878979799877777<7878.          ",
"           =994-9999888778688878977777978767<7777X          ",
"           =98417797977777888888979779777777<5887X          ",
"           &99;-7979979987898998997797779777<5877X          ",
"           =894-9979797988989888799777779797<787>X          ",
"           =99517777978989988988999679757787,7777X          ",
"           &99518868998879989788978777777799,5897X          ",
"           =98418768988999978789997896799977,7777X          ",
"           =97418999878899999898797786779777=7778.          ",
"           *98418899978879998797778777799977,5777X          ",
"           *88519999998999999897877699977997,7777.          ",
"           &784-8988999889797977778997877777=7777X          ",
"           *78518988898879977777889997887777,7797.          ",
"           *675*7787888889777777798877877772=7998.          ",
"           =686-=-<<<1<1111,=,,-;---<<<<-=,,37798X          ",
"           &8886555755555532:5:>66555755553777775X          ",
"           =8688598888887877777779999897977879777X          ",
"           &8888888889789776678699779987999799778X          "
};
