/* XPM */
static char *_b92042ebfce488db021d838a916d133oRbWDwwliu2fX7R2[] = {
/* columns rows colors chars-per-pixel */
"60 60 203 2 ",
"   c #05080B",
".  c #05080D",
"X  c #04060B",
"o  c #1457AC",
"O  c #060A0F",
"+  c #010306",
"@  c #06080A",
"#  c #050B15",
"$  c #050E1A",
"%  c #051020",
"&  c #02040E",
"*  c #061327",
"=  c #110B0A",
"-  c #0B0F15",
";  c #090C12",
":  c #0C111B",
">  c #0B090B",
",  c #1354A8",
"<  c #101925",
"1  c #101620",
"2  c #1A0B08",
"3  c #071D3B",
"4  c #06162E",
"5  c #0E3E7E",
"6  c #030712",
"7  c #124D9A",
"8  c #203046",
"9  c #050626",
"0  c #0C3367",
"q  c #172638",
"w  c #082043",
"e  c #104285",
"r  c #11458A",
"t  c #04051A",
"y  c #111215",
"u  c #1A1B20",
"i  c #413E44",
"p  c #0A2A55",
"a  c #071E3F",
"s  c #591F09",
"d  c #291008",
"f  c #061833",
"g  c #1C2B3F",
"h  c #0B2C5B",
"j  c #1251A1",
"k  c #2D4463",
"l  c #061936",
"z  c #22354E",
"x  c #114A94",
"c  c #092245",
"v  c #131C2A",
"b  c #1F1F24",
"n  c #050439",
"m  c #071B38",
"M  c #0D3872",
"N  c #09244B",
"B  c #124F9D",
"V  c #0B2F61",
"C  c #162030",
"Z  c #25262B",
"A  c #2B2A33",
"S  c #5A585E",
"D  c #40180A",
"F  c #172334",
"G  c #050444",
"H  c #72280B",
"J  c #3F5F89",
"K  c #345075",
"L  c #283D58",
"P  c #313137",
"I  c #787374",
"U  c #1A151D",
"Y  c #070454",
"T  c #060364",
"R  c #A5A0A0",
"E  c #837C83",
"W  c #090578",
"Q  c #E4DFF0",
"!  c #CCA97A",
"~  c #F4D398",
"^  c #60598E",
"/  c #9C92E1",
"(  c #483EB8",
")  c #6E62D0",
"_  c #C8C0E6",
"`  c #371307",
"'  c #4A1A08",
"]  c #842E0C",
"[  c #67240A",
"{  c #A73B0F",
"}  c #253954",
"|  c #304A6A",
" . c #311208",
".. c #38567A",
"X. c #0600A2",
"o. c #8D8788",
"O. c #5B5451",
"+. c #545666",
"@. c #A9A2C0",
"#. c #C19865",
"$. c #F7D89E",
"%. c #CDC6DB",
"&. c #B74110",
"*. c #9A350E",
"=. c #3B5C83",
"-. c #0700CC",
";. c #242426",
":. c #27254D",
">. c #363541",
",. c #4B4A55",
"<. c #07038C",
"1. c #274878",
"2. c #E1DADA",
"3. c #1D1D3B",
"4. c #726E73",
"5. c #B7AEAB",
"6. c #20406F",
"7. c #C6C0C0",
"8. c #4D4A4C",
"9. c #100C46",
"0. c #483428",
"q. c #C2BAB1",
"w. c #6A4D39",
"e. c #D6B98E",
"r. c #693621",
"t. c #D2CBCB",
"y. c #826650",
"u. c #231D7C",
"i. c #383268",
"p. c #DEC196",
"a. c #9F907E",
"s. c #8B6F59",
"d. c #554BBF",
"f. c #C7A071",
"g. c #E5BF86",
"h. c #746BAD",
"j. c #1C159F",
"k. c #A27448",
"l. c #F3CE90",
"z. c #6F6896",
"x. c #372FA0",
"c. c #4A43A5",
"v. c #AEA8A9",
"b. c #293F5B",
"n. c #3A597F",
"m. c #0C0C23",
"M. c #646062",
"N. c #2E2A68",
"B. c #0600B1",
"V. c #5B6274",
"C. c #4A2425",
"Z. c #A7988A",
"A. c #1E1858",
"S. c #A9835F",
"D. c #261338",
"F. c #83533A",
"G. c #8E8277",
"H. c #A07E56",
"J. c #ACA2E6",
"K. c #574DB0",
"L. c #928AC5",
"P. c #595184",
"I. c #997E6C",
"U. c #7C759A",
"Y. c #3D2523",
"T. c #7C70CD",
"R. c #D1D91F",
"E. c #594EB2",
"W. c #9A91B7",
"Q. c #817C65",
"!. c #97974B",
"~. c #C5C662",
"^. c #9186DB",
"/. c #E2E666",
"(. c #34241A",
"). c #214F8A",
"_. c #543C2A",
"`. c #4F497B",
"'. c #1D3A64",
"]. c #363A4B",
"[. c #DBAA6F",
"{. c #626432",
"}. c #3D3B56",
"|. c #F6F3F7",
" X c #917660",
".X c #2D1521",
"XX c #8A8A54",
"oX c #B3A291",
"OX c #9C663D",
"+X c #F3F0F6",
"@X c #E4CDAC",
"#X c #555177",
"$X c #D5CFF0",
"%X c #67537B",
"&X c #F1EEF6",
"*X c #7B7845",
"=X c #ABAF2A",
"-X c #695DBD",
";X c #362F86",
":X c #867CDE",
">X c #584E9E",
",X c #B6ACDC",
"<X c #DEEA14",
/* pixels */
"                                                                                                                        ",
"                                                                                                                        ",
"                                                    O $ $ O .                                                           ",
"                                          ; % * % % * a N m * % % $ O . . O                                             ",
"                                        ; 4 p 0 0 p 3 3 N p V 0 0 p 4 % * * $                                           ",
"                                        # 4 h e x r M N l 3 p M x e p 3 m m 4 $ .                                       ",
"                                          $ 3 h M r x 5 V p V 5 7 7 5 h N N p c % O                                     ",
"                                          O % * 3 V r B 7 x 7 B , , 7 e M 5 e M 3 ;                                     ",
"                                        . O # # % c M x , o o o o o , j B j j 5 c $                                     ",
"                                        # $ % * 4 w 0 x , o o o o o o o o o , 5 c %                                     ",
"                                      O $ * 4 f w V e j o o o o o o o o o , j 5 w % O                                   ",
"                                      O $ * 4 a h 5 B , o o o o o o o o , 7 e V w * #                                   ",
"                                      . # $ % 4 N 0 5 r B , o o o o o o , r 0 c a f $ .                                 ",
"                                      . # $ $ % * l c 0 r , , j 7 7 j , , x 0 c m 4 % O                                 ",
"                                      # $ 4 l l f l a h e j B r 6.1.).7 j B 5 p l * $ O                                 ",
"                                    O # * 3 w a 3 m w V e 7 r 6.+.I V.1.r 7 r h l % # O                                 ",
"                                      # * m w a m l 3 h 5 e 6.+.a.e.Z.V.1.x e h f % ;                                   ",
"                                      . $ * l 3 a 3 3 N V '.+.a.p.~ e.E K e M c 4 $ O                                   ",
"                                        O # * 3 a l f 3 c 8 y.! l.~ p.G.k h c 4 % # O                                   ",
"                                        . 6 * a m * $ * c i  Xf.! ! f.y.A % $ $ ; O .                                   ",
"                                        O 6 * l 4 # > U ].E 5.oXs.y.k.F.0.U = O O                                       ",
"                                      . O 6 % * # >  .C.w.Z.t.q.I.H.#.#.H.w.(.;                                         ",
"                                        . 6 # t & = D r.F.S.p.@Xe.g.~ $.g.S._.y                                         ",
"                                          X & & & 9 D.C.r.OX[.~ $.$.$.~ ! s.0.y                                         ",
"                                        X & & & t n Y 9..Xr.k.f.g.l.l.! s.i b -                                         ",
"                                        X X & ; b >.i.N.A.D.Y.w.k.#.#.I.%Xi.3.-                                         ",
"                                        . . 6 < ,.o.@.L.K.u.Y U Y.0.O.E W.U.}.:                                         ",
"                                        6 # # * ,.R 2.Q J.d.j.T n G ;XL.%.v.S u                                         ",
"                                      . & 6 9 G u.h.%.|.Q / ( j.W W x.:X_ v.S u                                         ",
"                                      . X & 9 T j.d.@.Q +X$X/ ) ( x.d./ %.v.S u                                         ",
"                                    . t n G Y W <.u.P.@.Q &XQ _ / ) ^._ t.a.8.u                                         ",
"                                    t G <.B.B.X.W 9.i.h.J._ _ ,X^.T./ %.R O.b y                                         ",
"                                  . 9 Y X.-.-.<.9.A +.h.) ) ) T.W.@.7.q.Q.A ; ;                                         ",
"                                  . 9 Y X.-.X.T m.Z S U.-X( >XG.~././.~.*XA n 9 O                                       ",
"                                  . t n T W T n $ 1 A S z.E.^ !.R.<XR.=X{.3.G n t                                       ",
"                                  . & & t t t # : : 1 P #XK.( P.Q.!.XXS :.9 & & 6                                       ",
"                                  X X X X + + O : : : Z S z.E.( c.c.c.x.A.9 + + X                                       ",
"                                  O y b ;.;.;.Z b 1 - b 8.4.z.^ ^ ^ ^ `.:.: + & X                                       ",
"                                O u i I o.o.o.E O.b @ y Z >.i i i i i P u > t 9 9 6                                     ",
"                                - A 4.q.2.7.5.R I A ; < v 1 : 1 C C < ; X & 9 G n t                                     ",
"                                - P E t.2.5.I M.8.Z q } L 8 v v g 8 F < $ - 3.N.:.m.                                    ",
"                                ; Z M.R 7.R O.b u g k ..n.| 8 v < C q q F v P ,.>.:                                     ",
"                                  - b i 4.I i y < L ..J J ..L v ; 1 q z 8 C 1 b U O                                     ",
"                                      - Z P u - C k =.J J K 8 :   : q } z C - ;                                         ",
"                                        ; - O ; F k n.J =.k F O X - q z z C - O                                         ",
"                                          O O : q b...=.K 8 1 X + O v g g < ; O                                         ",
"                                        O ; - < q z k | } < X + + + ; 1 < - . .                                         ",
"                                      . - < q g 8 z } 8 < . + + + X ; : - O X                                           ",
"                                      O < z | k b.L 8 v O + + + X : F q < O X                                           ",
"                                      ; 1 8 | K K k g 1 O   X + O < g g 1 > @                                           ",
"                                      O - v g L k z C : O   X + X y v < - >                                             ",
"                                      @ = 2 2 u F v : ;     @ @ 2 2 d d 2 = @                                           ",
"                                    @ = d D D d 2 = O       @ 2  .' s [ s ` =                                           ",
"                                    > d s H [ '  .2 >       > 2 ` s ] *.{ ] ' =                                         ",
"                                    2 D ] &.*.[ ` 2 >         = d s ] { &.{ H d @                                       ",
"                                    2 ' *.&.{ H ` 2           @ = d D s [ s D 2                                         ",
"                                    =  .s H [ s d >               > > = = = > @                                         ",
"                                    @ > = = = = >                                                                       ",
"                                                                                                                        ",
"                                                                                                                        "
};
