/* XPM */
static char *result[] = {
/* columns rows colors chars-per-pixel */
"60 60 3 1 ",
"  c #5E3C3C",
". c #674242",
"X c #553636",
/* pixels */
"    .......       . ..          ..........    XXXX..        ",
"   X .....       X  XXXXXX X      XXX . ..    XX X XXX      ",
"   XX .  X        XXXXXXX         XX ..   .   .... XXX      ",
"    X .  XXXXX          .   X      ....    .  .....  ..     ",
"  .....  XXXX           X X         ....  . . ..   ... X    ",
"   ...    X  ...      XXXX           .  ....  ...    XXXX   ",
" .     ..   ....       XXX ..        XX ...   ...     XXX   ",
"  .       X    XXX      XXXXX X          .   ...   XX   XXX ",
".    XXX  X .  XXXX  .    XX  X      ... .......    X XXXXX ",
".  XX X X  X               ..         ..    . ...     XXX  .",
".  XX    X XX .. X     .    .       XX   XXXX .    X  XX  X ",
"       X XX X  .    XX ..   .     X    .. XXXX          XXXX",
"           X X   .    .....      .  .......   ..        XXXX",
"                 ............ X  ..............   ....      ",
"       XX     X  .......  ...  XX    ..........   ..... ....",
"       XX      . XX ...XXX     XX  XX   .... . XXX  ....    ",
"         XX .... XX ... XX   .       .......  XX    ..... . ",
".  ..       ........ ....   ..     ...... ..   .....    .  .",
"X  .....  ..   ... XX ..   XXX     .....  ..   ....     .  .",
"  ..........   ..  X ....   XX .   ....  .     .....  X   ..",
" ...........         ....          ...    XX   ....    XX ..",
"X      ....          X       XXX  .    ...  .......  X XXX  ",
"  ..  ....      ..  .    X    XX           ...... .. X   X X",
"  ..  ... . .  .... ... XX      XXX           XX   ..  X    ",
"  ..  ....      .......         XX . .....    XX ....     . ",
"    XX ..          .. XX  . X        ....  . .  ...... .... ",
"     X  .. .   .      X   .         X...     .  .......... X",
"    .   ...    .. .. .  ......     XX  ..     .         . XX",
"      .XX    .    ...       ......     ..    .. .   . X   XX",
"XX  XX XXX   .    .  XXXXXXXX .  ..   ... .     .....     XX",
"X      XXX                       .... ..    .   ...         ",
".......                 ...... ........   ....              ",
"  .   .        .......   ..... . ......                     ",
"XX XXX XX   X .........    XXXXX  ..       XX    X ..     XX",
"X   X      .  .   . ..   .. XXXXX         .         .       ",
"  X X X     .. X  ....    ..           X   XXXXX .. ..      ",
"  XXXXXX  XX  XXX ...... XXX          XXX  XXXXXX....       ",
"     XX X  ..   ........    X XXXXXX   XXX  XXXXX   X ..    ",
" .  .     ..................   XXXXX   XXX X XX   .         ",
"    .   ........  ..........  XXXXX               ... .     ",
"XX   . ..  ....    .  ....       XX  X .   X    ............",
"X . .....  ..... ..   ....         XXXX    XXX    XXX .  ...",
".. X ... X  XX    XXXX  .....   XX XXXXXXX  X     XXX     ..",
"..  ... XXX XX   XX X   .....   XX XXXXX    . ..          . ",
"......               .. .....        . . .  . ....    .  .. ",
" ..  XX .. X  X       . ....  .     XXXXXXXX    X    XXXX   ",
"X  XXXXX .. XXXX XX  XXX  ....... XXXXXXXXXX    X  . XXXXXX ",
"   XX X .....        X  ........       XX   ....... .   XX  ",
"..............        ...........   ..      .. ..      ..   ",
" ... .........  X   X .............    XX   XX ..    X      ",
"....       .....  X    ......... .. .  XXX XXXXX    XXX    X",
".. X  .. XX  ....  . XX ... ..     ... XXX XXXXX X  XXX    X",
"..      XXXX  ...   XXX .. . XXX  ....           X          ",
"...    XXX   ....   XX .. .. X  .          .  . .. .    X   ",
" ..         ... . .     XX   ..  XX             ....        ",
"...       X   .   .. X XXX    . XXX  X ..  .    ....        ",
"..  .      XXXXXX      ... XXXX XXXXX  .... XXXX  XXXXX   XX",
".......  X XXXXXX      ....       XXX  .... XXXX XXXXXXX.  X",
".......       X        .....  .   XXX .......     X X  X ...",
"   X .. X     X  XX       .   .    XX   ..... X X      ..   "
};
