/* XPM */
static char *result[] = {
/* columns rows colors chars-per-pixel */
"32 32 229 2 ",
"   c #2D260E",
".  c #2C280E",
"X  c #372D0B",
"o  c #3B330A",
"O  c #393308",
"+  c #2C2612",
"@  c #2E2816",
"#  c #322C11",
"$  c #32271B",
"%  c #34291E",
"&  c #352918",
"*  c #3B3314",
"=  c #3C3513",
"-  c #3A2B25",
";  c #413609",
":  c #493F1C",
">  c #4D451C",
",  c #4D491D",
"<  c #4C4615",
"1  c #51461D",
"2  c #534C1C",
"3  c #535118",
"4  c #655D18",
"5  c #676215",
"6  c #4E4523",
"7  c #4D4B20",
"8  c #534B24",
"9  c #524B2A",
"0  c #514627",
"q  c #58522C",
"w  c #655D25",
"e  c #615238",
"r  c #6E6934",
"t  c #726A34",
"y  c #7B753A",
"u  c #706B2B",
"i  c #7E7B44",
"p  c #837B3B",
"a  c #867A5B",
"s  c #897A5C",
"d  c #867F47",
"f  c #897D62",
"g  c #9D9719",
"h  c #A29C1C",
"j  c #A9A41E",
"k  c #B5AF1E",
"l  c #8A8326",
"z  c #898329",
"x  c #858335",
"c  c #87823A",
"v  c #8B843C",
"b  c #8B8738",
"n  c #928C39",
"m  c #959230",
"M  c #A59E2D",
"N  c #A59C28",
"B  c #9FAA3D",
"V  c #9DA73A",
"C  c #A4A024",
"Z  c #A6A229",
"A  c #ACA529",
"S  c #B4AC2B",
"D  c #B6AD24",
"F  c #B7B329",
"G  c #A9A034",
"H  c #A2AD35",
"J  c #ACA33B",
"K  c #A5AC3C",
"L  c #B4AC38",
"P  c #A5B03D",
"I  c #A9B63F",
"U  c #BBB433",
"Y  c #CABB04",
"T  c #C6B604",
"R  c #C7BE25",
"E  c #CFC205",
"W  c #CFC40C",
"Q  c #D3C403",
"!  c #DBC701",
"~  c #D6C904",
"^  c #DBCA03",
"/  c #D2C60C",
"(  c #D6CC0C",
")  c #DDCF0C",
"_  c #DED40C",
"`  c #DED408",
"'  c #D5CB13",
"]  c #D7CF1B",
"[  c #DDD213",
"{  c #DAD41C",
"}  c #DFD917",
"|  c #CDC61F",
" . c #E3CD03",
".. c #E5CB09",
"X. c #EBCF08",
"o. c #E5D303",
"O. c #EBD403",
"+. c #ECDB05",
"@. c #ECD30B",
"#. c #E5DC0B",
"$. c #ECDD0C",
"%. c #E5D508",
"&. c #F1D603",
"*. c #F3D708",
"=. c #EDCD14",
"-. c #EECC1B",
";. c #F1CE15",
":. c #F1CD1D",
">. c #E4DD13",
",. c #E1DD1B",
"<. c #E8D317",
"1. c #F2D317",
"2. c #ECE20B",
"3. c #EFE307",
"4. c #F1E20A",
"5. c #EEE514",
"6. c #E9E31A",
"7. c #F1E612",
"8. c #F2E918",
"9. c #CCC624",
"0. c #D5CB24",
"q. c #DCD423",
"w. c #DDD32D",
"e. c #DEDC2B",
"r. c #DBD627",
"t. c #DDD633",
"y. c #DDD736",
"u. c #CAC433",
"i. c #E3DB23",
"p. c #E3DA2E",
"a. c #E2DC33",
"s. c #E3DB3B",
"d. c #E4DA36",
"f. c #E9E225",
"g. c #EAE434",
"h. c #838143",
"j. c #8C8544",
"k. c #8D8B45",
"l. c #8B8849",
"z. c #938A47",
"x. c #979648",
"c. c #958D53",
"v. c #94885A",
"b. c #9B9553",
"n. c #8F8A56",
"m. c #A59D44",
"M. c #A29B57",
"N. c #9EA64A",
"B. c #9DA754",
"V. c #A5AE44",
"C. c #AAAF42",
"Z. c #A5AB4B",
"A. c #A9AD4C",
"S. c #AAA44A",
"D. c #A6B243",
"F. c #ABB345",
"G. c #ACB24B",
"H. c #ADBA43",
"J. c #B3B54C",
"K. c #B6B548",
"L. c #A3A554",
"P. c #AAA654",
"I. c #A4AB53",
"U. c #ABAD53",
"Y. c #A5AC5C",
"T. c #ACAD5C",
"R. c #A9A45B",
"E. c #B0AB5A",
"W. c #A6B155",
"Q. c #ACB254",
"!. c #ABB35A",
"~. c #AAB557",
"^. c #B3B353",
"/. c #B1BA53",
"(. c #B2B25B",
"). c #B6BB5B",
"_. c #BBB959",
"`. c #B0A64F",
"'. c #9C8C76",
"]. c #928763",
"[. c #A3927D",
"{. c #A79B71",
"}. c #A69863",
"|. c #ADA662",
" X c #ABAD61",
".X c #AAAB65",
"XX c #B2AC64",
"oX c #B2AD6B",
"OX c #ADB161",
"+X c #B5B264",
"@X c #BAB365",
"#X c #B6BA61",
"$X c #B5B36B",
"%X c #BBB46D",
"&X c #BEBC6C",
"*X c #BABB69",
"=X c #B2A47D",
"-X c #B6AB78",
";X c #B7B078",
":X c #ADA570",
">X c #C0BA6A",
",X c #C3BD73",
"<X c #C4BE7C",
"1X c #BCC35F",
"2X c #BFC563",
"3X c #BCC173",
"4X c #BDC27A",
"5X c #DDD44D",
"6X c #D6CC44",
"7X c #E3DB47",
"8X c #E6DC55",
"9X c #E9DE55",
"0X c #ECE340",
"qX c #C4C468",
"wX c #C5C374",
"eX c #CBC574",
"rX c #C5C47C",
"tX c #CAC97B",
"yX c #CCD076",
"uX c #B6A984",
"iX c #CDBD99",
"pX c #C0B285",
"aX c #CFBDA3",
"sX c #CCC383",
"dX c #CCC789",
"fX c #CED287",
"gX c #CFC291",
"hX c #D2C793",
"jX c #D8C6AD",
/* pixels */
"2X1X1XJ.F.D.F.F.N.N.L.!. X X X.XB.B. XY.U.W.V.N.I H.H.H.I B B N.",
"qX2X).G.F.F.F.A.Z.Z.U.!.!. X X X.X XY.!.!.W.Z.D.I I I D.P V.D.D.",
"yXqX~.Z.G.Q./.Q.Q.Q.L.P.Y.!. X XOXOX!.!.T.W.W.G.D.B V V D.G././.",
"yXwX+XI.U.^.Q.^.(.(.T.M.l.i d i h.h.h.l.P.Q.Q.G.G.G.V V A.~./.~.",
"sX&X$XXXE.E.T.T.E.+X+Xc.8       @ @ # 8 x.(.W.W.).(.U.L.!.!.L.B.",
"sX<XoX|.oXXXT.M.l.d l.i 6 & * : = = = 2 y j.y k.T.#X!.P.OX XB.b.",
"dXsXoX|.-X%XE.j.0 + + > p m.M.`.I.Z.m.x 7 # . 7 v U.T.T. X X!. X",
"dX4XXX|.%XXXz.t 1 o o 4 J 5X8X9X8X8X5XL 5 o o < w v R.+X(.T. XOX",
"tXwX%X@X>Xs : 1 n L G R R 0.0.w.w.w.w.9.k C C l < 8 b.>X(.U.U.U.",
"tXeX>XE.c.t 1 4 R 0Xd.-.' / ' ' ' ' ' ' { f.e.S 5 2 p M.P.A.S.Z.",
"eX,X@Xz.0 1 p U R ] <.[ ~ Q Y Y Q E Y / >.,.{ 9.L x 1 8 k.`.P.Z.",
"<X<X>Xd + ; L 7X0./ ~ !  .!  .Y Q Q Q ~ ` _ ' ] s.G o   c E.T.T.",
"iXiX,Xd & ; N d.i.<.~ Q  .o. .!  .o.O.o.Q E ( } p.A o . j._.%X;X",
"iX,X}.p 1 4 D p.<.[ ~ ^  .o.X.X.O.O.&.o.Q E _ 6.6.k 5 , t c.:X;X",
"iX{.e 1 p R R <./ / X.X. . .&.*.&.&.O.O.o.o.2.5.,.] F l > 9 ].uX",
"aX'.- ; j d.:...T Y X.$.....X.*.X.X.O.O.O.%.2.2.} ,.e.Z X @ a uX",
"aX'.- ; M a.f.' T T ) @.=.=.:.;.;.;.1.1.O.o.o.%._ 6.e.C O % ].uX",
"aXuX- X M s.f.<.Y Y ^ @.;.-.-.-.-.;.1.1.@.%.%.#.#.,.e.C O % f uX",
"aXuX% X G s.i.' / ^ %.@.;.<.-.-.:.:.;.=.@.$.7.8.>.,.a.H # @ a ;X",
"iX'.e 1 z U R -.) .... ...=.=.;.:.;... .@.2.8.8.,.9.F z , 9 n..X",
"tX,XM.p 1 4 N R { ..~ !  ...o.@.@.@. . .%.3.>.,.r.A 5 3 y V B.T.",
"eXeX>Xd & X N t.q.' Q ~  .%.O.+.O.O.O.%.+.#._ ] t.Z O # b 1X/.A.",
"eXqX_.p X ; S.8Xd.{ ( ` @.2.3.3.&.3.4.7.5.>.' 0.7XV.= . x J.A.C.",
"qX>X_.x.8 8 d ^.6Xy.q.[ >.2.3.3.3.3.7.5.6.,.r.u.K.v 7 7 b G.F.A.",
"qX_.&X+Xb.i 0 w K.9Xs.0.=.) #.2.2.2.2.} { w.5XK.w , r k.A.Q.A.V.",
">X>X&X,X,Xb.0 : p S.J R | { } 2.>.,.,.| j N K b , , k.T.!.W.Q.I.",
"tXrX*X+X%XM.l.r 6 ; ; 5 S a.i.q.r.r.g.U 5 O = , r k.N.I.I.I.W.!.",
"fXtX$XT.T.T.^.z.1 # X 2 l M N h g h A m , . . 7 x.G.I.N.N.W.!.!.",
"fXrX$XY.U.U.^.A.n c v u 1 o ; ; O O o 3 u b x n V.H.1XW.W.W.W.W.",
"fXrX*X!.U.G.J.K.^.^.^.z.0 % * % % @ @ 9 x.^./.K.D.I P D.W.W.W.B.",
"4X4X3X).A.K F.K.J.^.E.M.v.s a a a a n.n.R.^.J.D.P P P D.~.~.B.B.",
"4X4X3X#XC.K K C.J.`.`.E.-X-X=X=X=X=X-X-XXXU.G.D.H H H D.~.!.W.B."
};
