/* XPM */
static char *_93394455d5c473b9661b7883b5fe64bUwdBNrzVv5mdJu5a[] = {
/* columns rows colors chars-per-pixel */
"64 64 41 1 ",
"  c #A3AE4D",
". c #A7AF4F",
"X c #A4B14F",
"o c #A1B64E",
"O c #A7AD51",
"+ c #A8AB51",
"@ c #AAAE52",
"# c #ADAE52",
"$ c #A9AF56",
"% c #ABAE5D",
"& c #B0AF52",
"* c #B3AE5E",
"= c #B7AF5F",
"- c #A3B352",
"; c #A7B051",
": c #A2B451",
"> c #A5B550",
", c #A6B056",
"< c #ABB153",
"1 c #ACB252",
"2 c #ABB154",
"3 c #ACB254",
"4 c #ABB25D",
"5 c #AFB05D",
"6 c #ADB65E",
"7 c #ABB85D",
"8 c #B2B053",
"9 c #B0B254",
"0 c #B0B05A",
"q c #B2B35B",
"w c #B2B25C",
"e c #B1AF60",
"r c #AEB661",
"t c #B3B160",
"y c #B4B160",
"u c #B1B365",
"i c #B6B16B",
"p c #CEC785",
"a c #D2C583",
"s c #D3C584",
"d c #D6C98E",
/* pixels */
"a0<@@OOOOOOOOOOOOOOOOOOOOOOOOOOOOOOOOOOOOOOOOOOOOOOOOOOOOOOOOOOO",
"a0<@@OOOOOOO;;O;O...............................................",
"s0<@@OOOOO;;;;;;;X..........X...........X...........X...........",
"s03@@OOOOOO;;;;;;...............................................",
"sw1@@OOO;;;;OO;;O...............................................",
"s01@@OOO;;;;O;;;O...............................................",
"s01@@OOOOOOOOO;;O...............................................",
"s01@@OOOOOOOOO;;O...............................................",
"s01@@OOOOOOOOOO;O...............................................",
"s01@@OOOOOOOOOO;O...............................................",
"s01@@OOO;;OOOOOOO...............................................",
"s01@@OOO;;;OOOOOO...............................................",
"s01@@OOO;;OOOO;OO...............................................",
"s01@@OOO;;OOOO;;O...............................................",
"s01@@OOO;OOO;;;;O...............................................",
"s01@@OOOOOOO;;;;O...............................................",
"s01@@OOOOOOO;OOOO...............................................",
"s01@@OOOOOO;;OOOO...............................................",
"s01@@OOOOO;;;;OOO...............................................",
"s01@@OOOOO;;;;OOO...............................................",
"s01@@OOOOO;;;OOOO.X.............................................",
"s0<@+OOOOO;;;;OOO...............................................",
"s0<@+OOO;;;;;;;;O...............................................",
"s0<@+OOOO;;;;;;;O...............................................",
"s0<@+OOO;;;;;OOOO...............................................",
"s0<@+O.O;;;;OOOOO...............................................",
"s0<@+O.O;;OOOOOOO...............................................",
"s0<@+OOOOOOOOOOOO...............................................",
"s0<@+OOOOOOOOOOOO...............................................",
"s0<@+OOOOOOOOOOOO...............................................",
"s0<@+OOO;O;;;;OOO...............................................",
"s0<@+OOO;;;;;;OOO...............................................",
"s0<@+OOOOO;;;;;;O...............................................",
"s0<@+OOOOO;;;;OOO...............................................",
"s0<@+OOOOOO;OOOOO...............................................",
"s0<@+OOOOOOOOOOOO...............................................",
"s0<@+OOOOOOOOOO;O...............................................",
"s0<@+OOOOOOOOO;;O...............................................",
"s0<@+..OOOOO;;;;O...............................................",
"s0<@+.OO;OOO;;;;O...............................................",
"s0<@+OOO;;OOOOOOO...............................................",
"s01@@OOO;;OOOOOOO...............................................",
"s01@@OOO;;;O;;O;O...............................................",
"s01@@OOO;;;O;;;;O...............................................",
"s01@@OOO;;;;;;OOO...............................................",
"s01@@OOO;;;;;;OOO...............................................",
"s01@@OOO;;O;OOOOO...............................................",
"s01@@OOOOOOOOOOOO...............................................",
"s01@@OOOOO;;;;OOO...............................................",
"s01@@OOOOO;;;;OOO..X............................................",
"s01@@OOOOOOO;OOOOXXX............................................",
"s01@@OOOOOOO;;OOOXXX............................................",
"s01@@OOO;;;OOOOOO...............................................",
"s01@@OOO;;OOOOOOO...............................................",
"s01@@OOO;;;OOO;OO...............................................",
"s01@@OOO;;;OOO;;O...............................................",
"s01@@OOOOOOO;;;;O...............................................",
"s01@@OOOOOOO;;;;O...............................................",
"s01@@OOO;;OOOOOOO...............................................",
"a01@@OOO;@;OOOOOO...............................................",
"a01@@OOO@@@OOOOOO..................................OOOOOOOOOOOO.",
"a5<;X;;<<#@@@;;;;<<<; ....;<<;<<<<<<XX<<<@@O@@<<<<<<@@@@@@@@@@@@",
"p%,-o><198&#@;:;;<<<;     <<<<<<<<<<<<<<<<<<<<2223222$$$$$$$$$$2",
"diur766wy===*545w***55555555***********wwtttyttttteeeeeeeeeee***"
};
