/* XPM */
static char *_5278ffd3c3f454b969e15d9fa024487CjH584S9CJGc3tIR[] = {
/* columns rows colors chars-per-pixel */
"64 64 95 2 ",
"   c #14141C",
".  c #221312",
"X  c #391D1D",
"o  c #1F1722",
"O  c #191C2C",
"+  c #241A23",
"@  c #2A1D26",
"#  c #2C2127",
"$  c #2E2128",
"%  c #36202D",
"&  c #38202E",
"*  c #373929",
"=  c #383A29",
"-  c #202534",
";  c #3D293C",
":  c #4D292D",
">  c #442533",
",  c #482734",
"<  c #4A2A32",
"1  c #4E2A38",
"2  c #552E37",
"3  c #522E39",
"4  c #593037",
"5  c #5A3239",
"6  c #63363C",
"7  c #6E373C",
"8  c #65383E",
"9  c #5A443A",
"0  c #25304A",
"q  c #36354F",
"w  c #293757",
"e  c #2A3858",
"r  c #3B3953",
"t  c #4F3441",
"y  c #573D4A",
"u  c #5E3C4A",
"i  c #653741",
"p  c #673C41",
"a  c #6B3A42",
"s  c #713D45",
"d  c #7E3F45",
"f  c #324161",
"g  c #3C4C67",
"h  c #3B4C69",
"j  c #6B454F",
"k  c #744047",
"l  c #784347",
"z  c #7C464A",
"x  c #7F494C",
"c  c #6B4650",
"v  c #4E536E",
"b  c #425576",
"n  c #716463",
"m  c #833A3C",
"M  c #824A4D",
"N  c #9A4446",
"B  c #A94747",
"V  c #866269",
"C  c #808642",
"Z  c #838942",
"A  c #A7AF4F",
"S  c #A3B44F",
"D  c #A7AF51",
"F  c #A9AD52",
"G  c #ADAF5C",
"H  c #B0AF52",
"J  c #B2AF5E",
"K  c #A5B151",
"L  c #AAB152",
"P  c #AEB25E",
"I  c #ABB85D",
"U  c #B1B154",
"Y  c #B2B25B",
"T  c #B0AD60",
"R  c #AEB661",
"E  c #B3B161",
"W  c #B6B16B",
"Q  c #4A5F80",
"!  c #4B6081",
"~  c #556A80",
"^  c #536B8B",
"/  c #627D99",
"(  c #728796",
")  c #6A86A1",
"_  c #7490A8",
"`  c #8895A0",
"'  c #8F94A1",
"]  c #8AA5B8",
"[  c #93ACBD",
"{  c #94ADBD",
"}  c #CEC785",
"|  c #D2C583",
" . c #D3C584",
".. c #D6C98E",
"X. c #94AFC0",
/* pixels */
"| Y L F F D D D D D D D D D D D D D D D D D D D D D D D D D D D D D D D D D D D D D D D D D D D D D D D D D D D D D D D D D D D ",
"| Y L F F D D D D D D D D D D D D A A A A A A A A A A A A A A A A A A A A A A A A A A A A A A A A A A A A A A A A A A A A A A A ",
" .Y L F F D D D D D D D D D D D D A A A A A A A A A A A A A A A A A A A A A A A A A A A A A A A A A A A A A A A A A A A A A A A ",
" .Y L F F D D D D D D D D D D D D A A A A A A A A A A A A A A A A A A A A A A A A A A A A A A A A A A A A A A A A A A A A A A A ",
" .Y L F F D D D D D D D D D D D D A A A A A A A A A A A A A A A A A A A A A A A A A A A A A A A A A A A A A A A A A A A A A A A ",
" .Y L F F D D D D D D D D D D D D A A A A A A A A A A A A A A A A A A A A A A A A A A A A A A A A A A A A A A A A A A A A A A A ",
" .Y L F F D D D D D D D D D D D D A A A A A A A A A A A A A A A A A A A A A A A A A A A A A A A A A A A A A A A A A A A A A A A ",
" .Y L F F D D D D D D D D D D D D A A A A A A A A A A A A A A A A A A A A A A A A A A A A A A A A A A A A A A A A A A A A A A A ",
" .Y L F F D D D D D D D D D D D D A A A A A A A A A A A =         Z A A A A A A A A A A A A A A A A A A A A A A A A A A A A A A ",
" .Y L F F D D D D D D D D D D D D A A A A A A A A A A = % 2 4 4 , + Z A A A A A A A A A A A A A A A A A A A A A A A A A A A A A ",
" .Y L F F D D D D D D D D D D D D A A A A A A A A A = < 5 5 5 5 5 , + Z A A A A A A A A A A A A A A A A A A A A A A A A A A A A ",
" .Y L F F D D D D D D D D D D D D A A A A A A A A A = < l M k 6 5 5 + Z A A A A A A A A A A A A A A A A A A A A A A A A A A A A ",
" .Y L F F D D D D D D D D D D D D A A A A A A A A A = p M M M k 6 5 + Z A A A A A A A A A A A A A A A A A A A A A A A A A A A A ",
" .Y L F F D D D D D D D D D D D D A A A A A A A A A =     5 @   < , o Z A A A A A A A A A A A A A A A A A A A A A A A A A A A A ",
" .Y L F F D D D D D D D D D D D D A A A A A A A A A = . : a X : 5 a @ Z A A A A A A A A A A A A A A A A A A A A A A A A A A A A ",
" .Y L F F D D D D D D D D D D D D A A A A A A A A A = m d s N B 7 a @ Z A A A A A A A A A A A A A A A A A A A A A A A A A A A A ",
" .Y L F F D D D D D D D D D D D D A A A A A A A A A = < , i s s 6 + C A A A A A A A A A A A A A A A A A A A A A A A A A A A A A ",
" .Y L F F D D D D D D D D D D D D A A A A A A A A A A = 5 s s 6 + C A A A A A A A A A A A A A A A A A A A A A A A A A A A A A A ",
" .Y L F F D D D D D D D D D D D D A A A A A A A A A A A = & > +   Z A A A A A A A A A A A A A A A A A A A A A A A A A A A A A A ",
" .Y L F F D D D D D D D D D D D D A A A A A A A A A =   < , > 2 , +   Z A A A A A A A A A A A A A A A A A A A A A A A A A A A A ",
" .Y L F F D D D D D D D D D D D D A A A A A A A A = % i 6 5 a s s z x % Z A A A A A A A A A A A A A A A A A A A A A A A A A A A ",
" .Y L F F D D D D D D D D D D D D A A A A A A A = % k M k s z M M k z s # Z A A A A A A A A A A A A A A A A A A A A A A A A A A ",
" .Y L F F D D D D D D D D D D D D A A A A A A A = 5 z M 8 l M M M 8 l M $ Z A A A A A A A A A A A A A A A A A A A A A A A A A A ",
" .Y L F F D D D D D D D D D D D D A A A A A A = ( [ V 8 l ' { { V 8 l M $ Z A A A A A A A A A A A A A A A A A A A A A A A A A A ",
" .Y L F F D D D D D D D D D D D D A A A A A A = ~ ] { n ` { X._ h ; 2 l 3 + Z A A A A A A A A A A A A A A A A A A A A A A A A A ",
" .Y L F F D D D D D D D D D D D D A A A A A A = h / ^ ! ! / ) h w O % k 8 + Z A A A A A A A A A A A A A A A A A A A A A A A A A ",
" .Y L F F D D D D D D D D D D D D A A A A A A A * 0 e t a r e w O   % i z $ Z A A A A A A A A A A A A A A A A A A A A A A A A A ",
" .Y L F F D D D D D D D D D D D D A A A A A A A A * 5 z k z M 3 o C * 5 z $ Z A A A A A A A A A A A A A A A A A A A A A A A A A ",
" .Y L F F D D D D D D D D D D D D A A A A A A A A = % k k z k 1 o Z = < l $ Z A A A A A A A A A A A A A A A A A A A A A A A A A ",
" .Y L F F D D D D D D D D D D D D A A A A A A A A =   5 s s s 1 o Z =   5 @ Z A A A A A A A A A A A A A A A A A A A A A A A A A ",
" .Y L F F D D D D D D D D D D D D A A A A A A A =     p 8 l k 6 , +     < + Z A A A A A A A A A A A A A A A A A A A A A A A A A ",
" .Y L F F D D D D D D D D D D D D A A A A A A A =   % k 3 k 8 5 v Q - < k $ Z A A A A A A A A A A A A A A A A A A A A A A A A A ",
" .Y L F F D D D D D D D D D D D D A A A A A A = 5 @ g y 5 5 5 q c 8 + 5 z $ Z A A A A A A A A A A A A A A A A A A A A A A A A A ",
" .Y L F F D D D D D D D D D D D D A A A A A A = < + 5 r b Q f j M M $ 5 z $ Z A A A A A A A A A A A A A A A A A A A A A A A A A ",
" .Y L F F D D D D D D D D D D D D A A A A A A A =   p k r e u z M M 6 +   C A A A A A A A A A A A A A A A A A A A A A A A A A A ",
" .Y L F F D D D D D D D D D D D D A A A A A A A A * p M k @ 5 z M M 8 + C A A A A A A A A A A A A A A A A A A A A A A A A A A A ",
" .Y L F F D D D D D D D D D D D D A A A A A A A A = p M k @ < l M M 8 + Z A A A A A A A A A A A A A A A A A A A A A A A A A A A ",
" .Y L F F D D D D D D D D D D D D A A A A A A A A = p M k @ < a z M 3 o Z A A A A A A A A A A A A A A A A A A A A A A A A A A A ",
" .Y L F F D D D D D D D D D D D D A A A A A A A A = p k s @ % 2 l 8 , o Z A A A A A A A A A A A A A A A A A A A A A A A A A A A ",
" .Y L F F D D D D D D D D D D D D A A A A A A A A = < a 6 +   5 s 6 + C A A A A A A A A A A A A A A A A A A A A A A A A A A A A ",
" .Y L F F D D D D D D D D D D D D A A A A A A A A = % i 1 o   5 s 1 o Z A A A A A A A A A A A A A A A A A A A A A A A A A A A A ",
" .Y L F F D D D D D D D D D D D D A A A A A A A A A 9 2 , o   % 2 , o Z A A A A A A A A A A A A A A A A A A A A A A A A A A A A ",
" .Y L F F D D D D D D D D D D D D A A A A A A A A A = < 5 + C * < 5 + Z A A A A A A A A A A A A A A A A A A A A A A A A A A A A ",
" .Y L F F D D D D D D D D D D D D A A A A A A A A A = < 5 + Z = < 5 + Z A A A A A A A A A A A A A A A A A A A A A A A A A A A A ",
" .Y L F F D D D D D D D D D D D D A A A A A A A A A = < 5 + Z = < 5 + Z A A A A A A A A A A A A A A A A A A A A A A A A A A A A ",
" .Y L F F D D D D D D D D D D D D A A A A A A A A A = < , o Z = % 2 + Z A A A A A A A A A A A A A A A A A A A A A A A A A A A A ",
" .Y L F F D D D D D D D D D D D D A A A A A A A A A = % > o Z A * < + Z A A A A A A A A A A A A A A A A A A A A A A A A A A A A ",
" .Y L F F D D D D D D D D D D D D A A A A A A A A A = % o C A A = % o Z A A A A A A A A A A A A A A A A A A A A A A A A A A A A ",
" .Y L F F D D D D D D D D D D D D A A A A A A A A = % > o Z A A = % > + Z A A A A A A A A A A A A A A A A A A A A A A A A A A A ",
" .Y L F F D D D D D D D D D D D D A A A A A A A = 5 z k @ Z A A = < k M % Z A A A A A A A A A A A A A A A A A A A A A A A A A A ",
" .Y L F F D D D D D D D D D D D D A A A A A A A A A A A A A A A A A A A A A A A A A A A A A A A A A A A A A A A A A A A A A A A ",
" .Y L F F D D D D D D D D D D D D A A A A A A A A A A A A A A A A A A A A A A A A A A A A A A A A A A A A A A A A A A A A A A A ",
" .Y L F F D D D D D D D D D D D D A A A A A A A A A A A A A A A A A A A A A A A A A A A A A A A A A A A A A A A A A A A A A A A ",
" .Y L F F D D D D D D D D D D D D A A A A A A A A A A A A A A A A A A A A A A A A A A A A A A A A A A A A A A A A A A A A A A A ",
" .Y L F F D D D D D D D D D D D D A A A A A A A A A A A A A A A A A A A A A A A A A A A A A A A A A A A A A A A A A A A A A A A ",
" .Y L F F D D D D D D D D D D D D A A A A A A A A A A A A A A A A A A A A A A A A A A A A A A A A A A A A A A A A A A A A A A A ",
" .Y L F F D D D D D D D D D D D D A A A A A A A A A A A A A A A A A A A A A A A A A A A A A A A A A A A A A A A A A A A A A A A ",
" .Y L F F D D D D D D D D D D D D A A A A A A A A A A A A A A A A A A A A A A A A A A A A A A A A A A A A A A A A A A A A A A A ",
" .Y L F F D D D D D D D D D D D D A A A A A A A A A A A A A A A A A A A A A A A A A A A A A A A A A A A D D D D A A A A A D D A ",
"| Y L F F D D D D F D D D D D D D A A A A A A A A A A A A A A A A A A A A A A A A A A A A A A A A A A A D D D A A A A A A D D A ",
"| Y L F F D D D F F F D D D D D D A A A A A A A A A A A A A A A A A A A A A A A A A A A A A A A A A A D D D D D D D D D D D D A ",
"| G L K S K K L L F F F F K K K K L L L K A A A A A K L K K L L L L L L L L L L L F F D F F L L L L L L F F F F F F F F F F F F ",
"} G K K S K L L U U H F F K K K K L L L L A A A A A L L L L L L L L L L L L L L L L L L L L L L L L L L L F F F F F F F F F F L ",
"..W E R I I I Y E J J J J Y P P Y J J J Y Y P P P P P P J J J J J J J J J J J Y Y E E E E E E E E E T T T T T T T T T T T T J J "
};
