/* XPM */
static char *_bd3d40838c14b8cbce4eb447397b4dciJKsG5G8LQ1086NX[] = {
/* columns rows colors chars-per-pixel */
"64 64 25 1 ",
"  c #432B2B",
". c #442B2B",
"X c #452C2C",
"o c #4A2F2F",
"O c #4B3030",
"+ c #4F3232",
"@ c #503333",
"# c #523434",
"$ c #543636",
"% c #583737",
"& c #573838",
"* c #5B3A3A",
"= c #5D3B3B",
"- c #5E3C3C",
"; c #613E3E",
": c #643F3F",
"> c #634040",
", c #674242",
"< c #694343",
"1 c #6B4444",
"2 c #6D4646",
"3 c #724949",
"4 c #754B4B",
"5 c #774C4C",
"6 c #784C4C",
/* pixels */
";;--,<,<1<,;-------,;,,,;;*****=-;<,,,,,1,;,,=****#$$;,;*---;--=",
";-*$-<1<,;,------*&=**$#++@****=-=-=&$$*,,;12-***$$*$**##*---;--",
";-=$+-<;=***=----**%$$###$**=**=-=***$=;,;=;;;;;*;,<;;#o+$=--;-;",
"=;--#*,,-*$$$$&=---=*=----,==**==;----<22,-*=-;;-,1,,<;*;,,;---=",
"*=;<;,,;-*$$&$*--;;-------;=*===-;;;;;,22,;*=;>,;,,-;=,,1,;-=--=",
";;;<,,;-=-*$*;,,<;----=**#O$*==-;-*-;-=;<;;;,<,;;,,,-*;-;Oo+$*--",
";;;;;;-,,,;=-,,<2;-----**OX#>,,;;=*---*$**;<11;--<1,;--*;$+#*=-;",
";;;;;--;;;=-;;;==$&-----=&$**=--**-=--;*&*;;,;=-,<<;-=*$=;-=$&**",
";;;;-*$**=$$-;-*$$@$*;;;---=++#*$*=*=-;,,;,-,;=-,<<;-**$$*=;+@$*",
",;;;-=#$*=--=,-*==&$*;;;-----;;-===*=--;,,<;<1,,;<,>;-**=*+$+*=;",
",;=$#**$*$==$&*--**----;;;;*-,1-*-=*=***=,;***-;-<;,;-**-=+@=;*,",
";;*#$=-=**$*$$=,,*$----;;;;**;1-*--*===$$--*#++$=<;;==**==**;-$;",
";;-=-=****$**$*;,-=*=*#=,<<;;;;;--;=&*,;-;,:=&$#$;-=*--***=*$$@X",
"--;--=*******=&=--,;-=*,222;,-****;,;-<1<<<1;,;-;,,-*-;=;==*$$@X",
"------------=;=*=-<1>,12222;<,,=**=,1<111<,,><,22,;;;,,;,;=-;;;;",
"-==--;=*$*--==**=-<,>122,***,,,-*$$--=-;,,;,<11,1;==;;<<<<;;,,,,",
"-=*--;=*#$--*--;,-*#-<2<*oX+;=--*$$***$$-;;,,,<;,*#+$*-;,<,;;;;;",
";;=*-;-=***$*,,,,;$$;;,,,*#$**;,;===;--;,,,,,,>-;&$&-;;;,<;,>;;;",
"<;;;,;----==;,,,,,,,,;;<2<;-**,,;---;;<1:<1,;,;--;,<11,;=--,;;-<",
"**-,,;,<--;<;==-<<,,*#*,<;=*-**$=----,;,,<1-;,,;-;121<;;=**;:=;>",
"$=;,,;<2,,;<,*%*,,=*$#-,,;;*;&+#;,;--<,,1,;-,,,;--<11<;,;=*=;=,,",
",<1<,,<<11,<,;;;;;=*--,,,,,-,=&*;,;-;,,,,=&-*&$*&*;,<,;-==*$$=,<",
"$*====;;,<1,-*-=&*$**--*=;-=-=-*##*=;;;-*=;,;*-;;;,,,,;=&**$#*;;",
"$=;;;*;,,,,;****=;;;;;;=----**-*$$---;--=,,,;;,,2222,,<;$$***$**",
";;<,;-<1<;;;;,=-<12;;-<;;-$$*---=*&$&*=*=;$**;;-<--;-=,<******=$",
";-<,--<1;,;;;;*=<22,,;1<,-$**--==*#O$===-;-;;;-*=++$*-,1;-==**;-",
"**;,=$-<,<;-=-=*=-;,21,;=---;;---;-*-,,,,<11;;-*-**;,<<1,--;-;,;",
"*===$+$;;;-;;--=-=**-,;$$$*-,=$*--*;>=*;<1<;-;,;<;;<1111<;;,,,,;",
";-*=;*==,,,;;---<;=**=-**---,;-===*=;*#;<1;=***-,;=;;;;,,;,,,;*@",
"--=-,;;-,,,;=---;,;,,;,;-;,><11,--;;-=$**;,,-**=;,--**=-;*=;,=+X",
"---*=-,=#*--=;,;-;;<1,;***---;,<,,<,;-***;,,;;;;;,;,-=;;;*$=;=#O",
"o$-**$=$o+$=*-,;-;-;;=*$##@###$;,=*;,;;-;<;,;;-;;*->,,<,;-*=;-*&",
"$*--;***$$*-*--====******==--=*;;-;,2<<;;1-=*-;;;**;<,;;--------",
"<,,;<,,;-;------;;;-=-,-*;,,<1;,;1<,1<21;1;*-,,,,-=;;;=*--------",
"-;<;;;,,;--*;=--,<<,,,<,=--,<,,,;,;,21,,;,-;--*=;;===;;;---====-",
"+#=$o#=-$*-****;,,<2,,<,;--;;$##$&*;,,---;*=*-#&;;-=$$;,;=****$$",
"#*-*+#=*==--;=-<;-;,;-,;--;;;=$##$$--;;---=*-,-=;;;;**;,;==-****",
"=-*;=;-;,;--<,<;-;-,;,<;--,,<,;-***--;;--=**-=$$*&*=,,=;,;------",
";=++#$+@$=*#&**@@$=,,24<;;-&****=--**=--*$$=**$++O+&,<,,<;------",
";;$**$@$*=*===***=;,,263<;=*$$**=$=***--*$+$*-=$+X #*=-**=>;---=",
";,-;;;--*$=,<<;,,<,<<2222,,;;;=**+o$*@$=-*@#$****##-=;=***<;-;;-",
";;==,;-*--,<<1,,,,;<2211121,<,-**$+$*$*--=*==**=**-;*<;,;=;;-;--",
"*=-;;,=-<,,<<<1,,**,,,,,<22<,---****#=---,==-=*=---;;<;<;-,;----",
"o$:;-<;,<,*;,<1;;**-,**;<1,;----=*=*$=-$#;,==*$*=--,<,,<;,1;,,,,",
"$;,*;<;<<,=-,,,,,,,,;==,,<,;-------=-=@ .#**-=#+$=;-;$++$;;;=,<1",
"<,-$=,,<;$$**@@*;-*$$*#$$-,1341;**#$**o o+#$=-***-;--$+#$----;,<",
"<,;;;<,;=$$$*##*=*$$&&*=*;,243<;=*$$**$=-*;-;-;<;,,;---,-;--;;;;",
",12221=**;=*-:;=------;2;;<22;---------;,;;-,=;<;<2,,;---,-=-,,;",
"-<1-****;<;=*=*$*---=--,;-<22,;;,;--***&*$+o#+@*-;=$*-;;*$+#=;;;",
"$=-+X.oo$,,,=#+$$*$$*=*#$$;-,,<243,-*$#@$#+o$#*;-;;$=;;,*#+Oo@$*",
"*=-=$$*#=<,,,;==*;**==*$-;,;,<1121;=*=-=-=**;-;,,>,;,<;;,-;=$$*=",
",<<,;22122<,2<,;**---**;2211222,,>;==;;,;-**=-;,<;,,;>;-;;;<,;;;",
";,<,;,,,,,,,1<;;*&-*-&*<;12121221,,<,;;-;*$***;=*-,,;------;;-;;",
";,<,;------,1,<,,;-$;=->-1222,,11;-11-,;;*$$***+X@*=-;-*+@*---=#",
",,,-*-,,,*#=<;,22;-*;;--*,21,;;11;-;;-<,=*$#$*$@o+$**=-*@@*;--=+",
",,=*%*;;;#o#**-<2,;-,=#+#;<,*;>=$$*-;<31-********---$#=--*&=--;=",
",,;==*=*##$***;;,;--;$@@-<2>;,-$#$-;;,,,====-;,;;<;,-=;;;=----;-",
";,<;---=**=-;,<,;,;-=**-<<;-1,-*;;,;-****----;;==;-,1<,;--,*$---",
"-,1;-----=***,,<;;-,;=***#+#-=-,<=*#$***=----;;;;--,<,,---;**---",
",<,;-===;-***=-;;&=<,=***&**=*-;;;$#$***=-21;;,-**=;;;,=*-;--**-",
"<1;;,;;--***$###@@*=-,-*><1,=&$$$=***$$**;562;-++$$**##oX+*-;*+o",
"<1,,21<;=***$$$$#$-**;-;;<,<,=**=****@#*=;12<,-*$$$**#@++$#*,;=#",
",;,<111;-**=****=*;=*=*;-<,<2,;-<-***$$;;,<<,1;,-**==*==-,$$;,,,",
"***#*,1-**===-*$**$$****;;=-;-**,-;***$=--;,<<,1-*****=---;,<-=;"
};
